{"title":"The Five 2010 BRRip XviD Ac3 Feel-Free","uid":6803432,"size":1167112192,"categoryP":"video","categoryS":"movies","magnet":"?xt=urn:btih:a49d4f30d85f92d7aa5e956225f69474fdc0a6e8&amp;dn=The+Five+2010+BRRip+XviD+Ac3+Feel-Free&amp;tr=udp%3A%2F%2Ftracker.openbittorrent.com%3A80&amp;tr=udp%3A%2F%2Fopen.demonii.com%3A1337&amp;tr=udp%3A%2F%2Ftracker.coppersurfer.tk%3A6969&amp;tr=udp%3A%2F%2Fexodus.desync.com%3A6969","seeders":0,"leechers":1,"uploader":".BONE.","files":1,"time":1320770877,"description":"Genre:Adventure | Family | Fantasy\nLanguage:English &lt;a href=&quot;\nhttp://www.imdb.com/title/tt1104779/&quot; rel=&quot;nofollow&quot; target=&quot;_NEW&quot;&gt;\nhttp://www.imdb.com/title/tt1104779/&lt;/a&gt;\nSource:BluRay x264-KaKa Thanks!\n \nFormat                           : AVI\nFormat/Info                      : Audio Video Interleave\nFile size                        : 1.09 GiB\nDuration                         : 1h 20mn\nOverall bit rate                 : 1 937 Kbps\n \nVideo\nID                               : 0\nFormat                           : MPEG-4 Visual\nFormat profile                   : Advanced Simple@L5\nFormat settings, BVOP            : Yes\nFormat settings, QPel            : No\nFormat settings, GMC             : No warppoints\nFormat settings, Matrix          : Default (H.263)\nCodec ID                         : XVID\nCodec ID/Hint                    : XviD\nDuration                         : 1h 20mn\nBit rate                         : 1 480 Kbps\nWidth                            : 640 pixels\nHeight                           : 360 pixels\nDisplay aspect ratio             : 16:9\nFrame rate                       : 23.976 fps\nColor space                      : YUV\nChroma subsampling               : 4:2:0\nBit depth                        : 8 bits\nScan type                        : Progressive\nBits/(Pixel*Frame)               : 0.268\nStream size                      : 850 MiB (76%)\nWriting library                  : XviD 1.2.1 (UTC 2008-12-04)\n \nAudio\nID                               : 1\nFormat                           : AC-3\nFormat/Info                      : Audio Coding 3\nMode extension                   : CM (complete main)\nCodec ID                         : 2000\nDuration                         : 1h 20mn\nBit rate mode                    : Constant\nBit rate                         : 448 Kbps\nChannel(s)                       : 6 channels\nChannel positions                : Front: L C R, Side: L R, LFE\nSampling rate                    : 48.0 KHz\nBit depth                        : 16 bits\nStream size                      : 257 MiB (23%)\nAlignment                        : Aligned on interleaves\nInterleave, duration             : 42 ms (1.00 video frame)\nInterleave, preload duration     : 512 ms\n \n   \nPlot:\n Battling their way back after being thrown into the dangerous world of a popular fictional book series, five kids learn that they can't change the past, but how they deal with it in the present will determine their future\n ","torrent":{"xt":"urn:btih:a49d4f30d85f92d7aa5e956225f69474fdc0a6e8","amp;dn":"The+Five+2010+BRRip+XviD+Ac3+Feel-Free","amp;tr":["udp%3A%2F%2Ftracker.openbittorrent.com%3A80","udp%3A%2F%2Fopen.demonii.com%3A1337","udp%3A%2F%2Ftracker.coppersurfer.tk%3A6969","udp%3A%2F%2Fexodus.desync.com%3A6969"],"infoHash":"a49d4f30d85f92d7aa5e956225f69474fdc0a6e8","infoHashBuffer":{"type":"Buffer","data":[164,157,79,48,216,95,146,215,170,94,149,98,37,246,148,116,253,192,166,232]},"announce":[],"urlList":[]}}